<?xml version="1.0" encoding="UTF-8" standalone="no"?>
<!-- Created with Inkscape (http://www.inkscape.org/) -->

<svg
   width="600mm"
   height="300mm"
   viewBox="0 0 600 300"
   version="1.1"
   id="svg5"
   inkscape:version="1.2 (dc2aedaf03, 2022-05-15)"
   sodipodi:docname="wire.svg"
   inkscape:export-filename="wire.png"
   inkscape:export-xdpi="96"
   inkscape:export-ydpi="96"
   xmlns:inkscape="http://www.inkscape.org/namespaces/inkscape"
   xmlns:sodipodi="http://sodipodi.sourceforge.net/DTD/sodipodi-0.dtd"
   xmlns="http://www.w3.org/2000/svg"
   xmlns:svg="http://www.w3.org/2000/svg">
  <sodipodi:namedview
     id="namedview7"
     pagecolor="#ffffff"
     bordercolor="#000000"
     borderopacity="0.25"
     inkscape:showpageshadow="2"
     inkscape:pageopacity="0.0"
     inkscape:pagecheckerboard="0"
     inkscape:deskcolor="#d1d1d1"
     inkscape:document-units="mm"
     showgrid="false"
     inkscape:zoom="0.82047445"
     inkscape:cx="1074.9878"
     inkscape:cy="621.59157"
     inkscape:window-width="1920"
     inkscape:window-height="1057"
     inkscape:window-x="-8"
     inkscape:window-y="-8"
     inkscape:window-maximized="1"
     inkscape:current-layer="layer1" />
  <defs
     id="defs2" />
  <g
     inkscape:groupmode="layer"
     id="layer2"
     inkscape:label="Layer 2">
    <path
       style="fill:#ffffff;fill-opacity:0;stroke:#000000;stroke-width:0.626004;stroke-dasharray:2.50403, 2.50403;stroke-dashoffset:0"
       d="m 205.18511,234.50416 c -30.19999,0 -54.6819,-35.52178 -54.6819,-79.33983 0,-43.81803 24.48191,-79.339845 54.6819,-79.339845"
       id="path3115-7" />
    <path
       style="fill:#ffffff;fill-opacity:0;stroke:#000000;stroke-width:0.626004;stroke-dasharray:2.50404, 2.50404;stroke-dashoffset:0"
       d="m 410.59188,219.75483 c -30.19999,0 -54.68188,-35.52176 -54.68188,-79.33982 0,-43.817978 24.48189,-79.339814 54.68188,-79.339814"
       id="path3115-7-3" />
  </g>
  <g
     inkscape:label="Layer 1"
     inkscape:groupmode="layer"
     id="layer1">
    <path
       style="fill:#ffffff;fill-opacity:1;stroke:#ffffff;stroke-width:0.296998;stroke-dasharray:none;stroke-dashoffset:0;stroke-opacity:0"
       d="m 127.40495,181.73731 c 3.83144,-4.2521 5.68878,-9.79057 5.7133,-17.03673 0.0261,-7.64218 -1.98066,-13.29838 -6.30145,-17.76303 -2.11323,-2.18362 -2.26934,-2.492 -1.2613,-2.492 0.63274,0 84.37987,-6.25642 186.10471,-13.90306 101.72485,-7.64659 185.33371,-13.90294 185.79732,-13.90294 0.46355,0 0.71403,0.20912 0.55631,0.46517 -0.15753,0.25606 0.0466,0.74386 0.4573,1.0844 0.58121,0.48342 1.03806,0.42606 2.08724,-0.26335 0.73876,-0.48551 1.34322,-1.09133 1.34322,-1.3467 0,-0.25553 1.48444,-0.46413 3.29875,-0.46413 2.76312,0 3.69897,0.2545 5.76298,1.56688 2.98912,1.90063 5.25678,5.32595 6.72426,10.15716 1.43005,4.70767 1.16547,12.69175 -0.57119,17.23698 -2.33401,6.10888 -7.91739,10.41143 -12.54736,9.66916 -1.13162,-0.18148 -2.13585,-0.11781 -2.23163,0.14115 -0.0956,0.25931 -84.00129,6.75051 -186.45666,14.42485 -102.45536,7.67433 -187.20046,14.08066 -188.32243,14.23639 l -2.03994,0.283 z m 372.62414,-27.66753 c 0.2036,-0.53136 -0.11918,-1.35026 -0.83027,-2.10937 -1.03351,-1.10298 -1.24988,-1.15339 -1.94754,-0.45371 -0.69769,0.69954 -0.64724,0.93387 0.45417,2.10937 1.45291,1.55063 1.87252,1.6326 2.32364,0.45371 z m -3.88335,-5.45863 c 0,-1.97815 -2.0869,-3.87498 -2.86843,-2.60715 -0.5358,0.86924 1.21874,3.68576 2.08771,3.35138 0.42921,-0.16521 0.78072,-0.50009 0.78072,-0.74423 z m -2.32506,-6.63836 c -0.15992,-0.41826 -0.29108,-1.21378 -0.29108,-1.76731 0,-0.72033 -0.36719,-1.00637 -1.29174,-1.00637 -0.79204,0 -1.2138,0.25397 -1.09022,0.65578 0.11105,0.36088 0.33807,1.28322 0.50463,2.05005 0.2382,1.0948 0.53468,1.33348 1.38148,1.1115 0.6741,-0.17689 0.96912,-0.56798 0.78705,-1.04365 z m -0.91373,-7.35994 c -0.11339,-1.37189 -0.43813,-2.01542 -1.07812,-2.13703 -0.75066,-0.14234 -0.91573,0.21119 -0.91573,1.96305 0,1.80812 0.16612,2.13703 1.07815,2.13703 0.92549,0 1.05516,-0.27796 0.9157,-1.96305 z m 0.78092,-5.25076 c 0.12128,-0.21644 0.37494,-1.04272 0.56412,-1.83628 0.3059,-1.28334 0.19811,-1.44276 -0.97424,-1.44276 -0.72493,0 -1.32129,0.29519 -1.32521,0.65583 -0.002,0.36088 -0.14919,1.18702 -0.32254,1.83623 -0.25222,0.94421 -0.0999,1.18045 0.76118,1.18045 0.59215,0 1.17573,-0.17732 1.29683,-0.39373 z m 3.36363,-8.51941 c -0.2363,-1.38774 -1.68393,-1.12778 -2.62623,0.47143 -0.87517,1.48547 -0.87472,1.58117 0.009,2.08759 0.72198,0.41354 1.12754,0.27586 1.83813,-0.62376 0.50153,-0.63497 0.85195,-1.50592 0.77888,-1.93542 z"
       id="path24209" />
    <path
       style="fill:#ffffff;stroke:#000000;stroke-width:0.29689;stroke-dasharray:none"
       d="m 118.21253,143.97854 c 7.72976,0 13.99597,9.21404 13.99597,20.58007 0,11.366 -6.26621,20.58003 -13.99597,20.58003"
       id="path9701" />
    <path
       style="fill:#ffffff;fill-opacity:1;stroke:#000000;stroke-width:0.626;stroke-dasharray:2.50401, 1.25199;stroke-dashoffset:0;stroke-opacity:1"
       d="M 410.86859,61.07337 C 205.33981,76.332078 205.33981,76.332078 205.33981,76.332078"
       id="path20713-4-5" />
    <path
       style="fill:#ffffff;fill-opacity:1;stroke:#000000;stroke-width:0.626004;stroke-dasharray:2.50403, 1.252;stroke-dashoffset:0;stroke-opacity:1"
       d="M 410.86859,219.73549 C 205.33981,234.99428 205.33981,234.99428 205.33981,234.99428"
       id="path20713-4-5-5" />
    <path
       style="fill:#ffffff;stroke:#000000;stroke-width:0.626004;stroke-dasharray:1.252, 1.252;stroke-dashoffset:0"
       d="m 505.96169,155.99289 c -7.72978,0 -13.99598,-9.21403 -13.99598,-20.58007 0,-11.36604 6.2662,-20.58008 13.99598,-20.58008"
       id="path3115-5" />
    <path
       style="fill:#ffffff;stroke:#000000;stroke-width:0.29689;stroke-dasharray:none"
       d="m 505.96169,114.83274 c 7.72973,0 13.99593,9.21404 13.99593,20.58008 0,11.36604 -6.2662,20.58007 -13.99593,20.58007"
       id="path9701-7" />
    <path
       style="fill:#ffffff;stroke:#000000;stroke-width:0.29689;stroke-dasharray:none"
       d="m 118.21253,185.13864 c -7.72976,0 -13.99596,-9.21403 -13.99596,-20.58003 0,-11.36603 6.2662,-20.58007 13.99596,-20.58007"
       id="path3115" />
    <path
       style="fill:#ffffff;fill-opacity:1;stroke:#000000;stroke-width:0.296998;stroke-dasharray:none;stroke-dashoffset:0;stroke-opacity:1"
       d="M 507.94402,155.99484 C 120.16407,185.14065 120.16407,185.14065 120.16407,185.14065"
       id="path20713-4" />
    <path
       style="fill:#ffffff;fill-opacity:1;stroke:#000000;stroke-width:0.296998;stroke-dasharray:none;stroke-dashoffset:0;stroke-opacity:1"
       d="m 505.93035,114.83102 c -387.7799,29.14579 -387.7799,29.14579 -387.7799,29.14579"
       id="path20713" />
    <path
       style="fill:#000000;fill-opacity:1;stroke:#000000;stroke-width:0.573087;stroke-linejoin:miter;stroke-dasharray:none;stroke-dashoffset:0;stroke-opacity:0"
       id="path27702"
       d="m 208.76905,110.16173 c 0.0205,0.2001 0.037,0.40066 0.0615,0.6003 0.12671,1.03142 0.23459,1.61552 0.36496,2.71295 0.26408,2.22285 0.43269,4.44864 0.57585,6.68188 0.0474,1.00476 0.15222,2.73426 0.12819,3.80942 -0.006,0.28146 -0.004,0.56975 -0.0802,0.84079 -0.0141,0.0501 -0.198,0.0305 -0.15606,-2.3e-4 0.81285,-0.59634 0.57599,0.30001 0.32589,-1.39036 -0.0299,-0.52587 -0.099,-1.05097 -0.0898,-1.57761 0.0509,-2.88621 0.94497,-5.74143 2.39709,-8.22736 0.32454,-0.5556 0.72541,-1.06296 1.08811,-1.59444 1.3789,-1.53083 0.67639,-0.86461 2.07275,-2.03471 0,0 -0.67318,-0.4205 -0.67318,-0.4205 v 0 c -1.40118,1.18467 -0.69626,0.51137 -2.08035,2.05535 -0.36404,0.53473 -0.76618,1.04543 -1.09212,1.60421 -1.45656,2.49701 -2.35857,5.36406 -2.41976,8.26187 -0.0111,0.52818 0.0561,1.0551 0.0842,1.58264 0.0537,0.38382 -0.006,0.80155 0.16098,1.15145 0.19622,0.41203 0.54231,0.7432 0.88489,1.04471 0.0554,0.0487 0.18222,-0.0161 0.20355,-0.0867 0.0824,-0.27269 0.0737,-0.56606 0.0797,-0.85086 0.0225,-1.06008 -0.0844,-2.83096 -0.13132,-3.81518 -0.0517,-0.82059 -0.0923,-1.64195 -0.15516,-2.46176 -0.19291,-2.51736 -0.5197,-5.01902 -0.83651,-7.52237 0,0 -0.7133,-0.36344 -0.7133,-0.36344 z" />
    <path
       style="fill:#000000;fill-opacity:1;stroke:#000000;stroke-width:0.573087;stroke-linejoin:miter;stroke-dasharray:none;stroke-dashoffset:0;stroke-opacity:0"
       id="path27704"
       d="m 318.55857,223.82361 c 0.62463,-0.69592 1.11545,-1.19199 1.61594,-2.03641 1.65322,-2.78923 2.65472,-5.94864 3.40566,-9.08351 0.26316,-1.09866 0.43535,-2.21713 0.65302,-3.32569 0.089,-0.91298 0.21953,-1.82287 0.26699,-2.73895 0.0346,-0.66766 0.0249,-1.33859 -0.0212,-2.00556 -0.0663,-0.96027 -0.28356,-2.39614 -1.66831,-2.30979 -0.26149,0.0163 -0.36734,0.37366 -0.55099,0.56049 -1.54086,2.80163 -1.91863,5.89065 -1.87735,9.05631 0.0161,1.22662 0.0926,2.45502 0.24897,3.67174 0.1343,1.04521 0.41405,2.06652 0.62108,3.09979 0.73509,1.78435 0.81061,2.40803 1.96919,3.81542 0.2581,0.31354 0.59973,0.54775 0.89961,0.82162 0,0 0.73742,0.30087 0.73742,0.30087 v 0 c -0.30319,-0.26835 -0.6487,-0.49541 -0.90956,-0.80508 -1.1657,-1.38378 -1.25031,-2.0259 -1.98792,-3.7893 -0.20923,-1.03053 -0.49186,-2.04885 -0.62772,-3.0916 -0.15817,-1.21388 -0.23551,-2.43972 -0.25252,-3.66375 -0.0437,-3.14397 0.32996,-6.21561 1.85962,-8.99871 0.17047,-0.16653 0.4404,-0.2721 0.51144,-0.49959 0.0423,-0.13539 -0.30792,-0.47453 -0.24728,-0.3463 0.0963,0.2035 0.28811,0.35951 0.35515,0.5744 0.12531,0.4017 0.18119,0.82475 0.21228,1.24439 0.13943,1.88191 -0.044,2.75417 -0.23281,4.73301 -0.21627,1.10696 -0.38663,2.22388 -0.64881,3.32088 -0.74702,3.12575 -1.74686,6.27597 -3.39997,9.05404 -0.50324,0.84571 -0.9842,1.32602 -1.61118,2.01883 0,0 0.67915,0.42245 0.67915,0.42245 z" />
  </g>
  <g
     inkscape:groupmode="layer"
     id="layer3"
     inkscape:label="Layer 3">
    <path
       style="fill:#ffffff;fill-opacity:0;stroke:#000000;stroke-width:0.626004;stroke-dasharray:2.50403, 2.50403;stroke-dashoffset:0"
       d="m 205.18511,75.824485 c 30.19997,0 54.68189,35.521815 54.68189,79.339845 0,43.81805 -24.48192,79.33983 -54.68189,79.33983"
       id="path9701-3" />
    <path
       style="fill:#ffffff;fill-opacity:0;stroke:#000000;stroke-width:0.626004;stroke-dasharray:2.50404, 2.50404;stroke-dashoffset:0"
       d="m 410.59188,61.075196 c 30.19996,0 54.68192,35.521836 54.68192,79.339814 0,43.81806 -24.48196,79.33982 -54.68192,79.33982"
       id="path9701-3-5" />
    <path
       style="fill:#ffffff;fill-opacity:1;stroke:#000000;stroke-width:0.626004;stroke-dasharray:2.50403, 2.50403;stroke-dashoffset:0;stroke-opacity:1"
       d="m 505.93035,134.58223 c -387.7799,29.14584 -387.7799,29.14584 -387.7799,29.14584"
       id="path20713-7" />
    <path
       style="fill:#000000;fill-opacity:1;stroke:#000000;stroke-width:0.626004;stroke-dasharray:2.50401, 1.25201;stroke-dashoffset:0;stroke-opacity:1"
       d="M 204.79804,157.14768 C 232.39055,85.745902 232.39055,85.745902 232.39055,85.745902"
       id="path25438" />
    <ellipse
       id="path25493"
       style="fill:#000000;stroke:#000000;stroke-width:0.264583"
       cx="196.05309"
       cy="123.3287"
       rx="7.4368771e-05"
       ry="7.4564276e-05" />
  </g>
</svg>
